<svg height="95" viewBox="0 0 211 95" width="211" xmlns="http://www.w3.org/2000/svg"><g fill="none" fill-rule="evenodd"><g transform="translate(4 13)"><g stroke="#fff"><path d="m14.5 20.5h12" stroke-linecap="square" transform="matrix(-1 0 0 1 41 0)"/><path d="m64.5 21.5h12" stroke-linecap="square"/><path d="m9.5 16.5h17" stroke-linecap="square" transform="matrix(-1 0 0 1 36 0)"/><path d="m64.5 17.5h17" stroke-linecap="square"/><path d="m43.4000449 10.8172115-2.0839035-3.59573777-8.3161414 14.34979547h4.1678069zm10.4414458 3.578546-2.0961834 3.6171399 2.0621505 3.5583718h4.1925422zm-4.1062319-7.17428377-6.275744 10.82878977 2.0405729 3.5210057h.0764864l6.2375008-10.762829zm-4.219558-.09859026 2.0561859-3.56152945-2.0561859-3.56135402-2.056186 3.56135402z"/></g><text fill="#fff" font-family="Lato-Italic, Lato" font-size="14" font-style="italic"><tspan x=".5215" y="43">Get To Know Us</tspan></text><path d="m36.9694434 56-.9694434.9694434 9.1400003 9.1400004 9.1400004-9.1400004-.9694434-.9694434-8.170557 8.1705569z" fill="#fff"/></g><g transform="translate(107 13)"><g stroke="#f84848"><path d="m14.5 20.5h12" stroke-linecap="square" transform="matrix(-1 0 0 1 41 0)"/><path d="m64.5 21.5h12" stroke-linecap="square"/><path d="m9.5 16.5h17" stroke-linecap="square" transform="matrix(-1 0 0 1 36 0)"/><path d="m64.5 17.5h17" stroke-linecap="square"/><path d="m43.4000449 10.8172115-2.0839035-3.59573777-8.3161414 14.34979547h4.1678069zm10.4414458 3.578546-2.0961834 3.6171399 2.0621505 3.5583718h4.1925422zm-4.1062319-7.17428377-6.275744 10.82878977 2.0405729 3.5210057h.0764864l6.2375008-10.762829zm-4.219558-.09859026 2.0561859-3.56152945-2.0561859-3.56135402-2.056186 3.56135402z"/></g><text fill="#f84848" font-family="Lato-Italic, Lato" font-size="14" font-style="italic"><tspan x=".5215" y="43">Get To Know Us</tspan></text><path d="m36.9694434 56-.9694434.9694434 9.1400003 9.1400004 9.1400004-9.1400004-.9694434-.9694434-8.170557 8.1705569z" fill="#f84848"/></g></g></svg>